<?xml version="1.0" standalone="no"?>
<!DOCTYPE svg PUBLIC "-//W3C//DTD SVG 20010904//EN"
 "http://www.w3.org/TR/2001/REC-SVG-20010904/DTD/svg10.dtd">
<svg version="1.0" xmlns="http://www.w3.org/2000/svg"
 width="514.000000pt" height="584.000000pt" viewBox="0 0 514.000000 584.000000"
 preserveAspectRatio="xMidYMid meet">

<g transform="translate(0.000000,584.000000) scale(0.100000,-0.100000)"
fill="#324840" stroke="none">
<path d="M2520 5620 c-66 -11 -113 -33 -152 -72 -58 -59 -73 -100 -73 -208 0
-86 3 -100 27 -142 113 -191 404 -184 504 12 25 50 31 175 11 235 -44 127
-173 198 -317 175z"/>
<path d="M2508 4813 c-8 -10 -36 -65 -61 -123 -158 -361 -177 -625 -70 -979
99 -329 261 -585 598 -946 98 -104 213 -233 257 -285 202 -241 350 -523 399
-765 19 -93 17 -286 -5 -380 -68 -297 -230 -524 -546 -765 -141 -108 -157
-133 -126 -196 31 -67 -13 -64 991 -64 1006 0 962 -3 990 64 21 50 19 72 -12
106 -25 27 -40 33 -138 51 -131 23 -213 59 -277 121 -68 67 -84 96 -221 418
-156 368 -738 1678 -880 1980 -105 226 -252 530 -626 1298 -110 228 -201 417
-201 422 0 11 -40 60 -49 60 -4 0 -15 -8 -23 -17z"/>
<path d="M1056 1182 c-169 -339 -209 -399 -329 -495 -79 -63 -235 -144 -392
-202 -124 -46 -132 -50 -140 -75 -9 -28 10 -56 47 -70 51 -19 618 -31 1269
-28 551 3 578 4 598 22 29 26 28 71 -3 91 -13 9 -71 37 -128 62 -57 25 -134
66 -173 91 -92 61 -259 228 -322 322 -95 142 -171 318 -213 492 -21 88 -26 98
-46 98 -8 0 -73 -118 -168 -308z"/>
</g>
</svg>
